<?xml version="1.0" standalone="no"?>
<!DOCTYPE svg PUBLIC "-//W3C//DTD SVG 1.1//EN" "http://www.w3.org/Graphics/SVG/1.1/DTD/svg11.dtd" >
<svg xmlns="http://www.w3.org/2000/svg">
<metadata></metadata>
<defs>
<font id="gonville-2020" horiz-adv-x="479" >
<font-face units-per-em="2048" ascent="1638" descent="-410" />
<missing-glyph horiz-adv-x="387" />
<glyph horiz-adv-x="2048" />
<glyph horiz-adv-x="2048" />
<glyph unicode="&#xd;" horiz-adv-x="2048" />
<glyph unicode=" "  horiz-adv-x="387" />
<glyph unicode="&#x09;" horiz-adv-x="387" />
<glyph unicode="&#xa0;" horiz-adv-x="387" />
<glyph unicode="+" horiz-adv-x="481" d="M0 512q0 -26 23 -40q12 -6 43 -7h37h13h78v-77v-14q0 -53 0.5 -62.5t5.5 -17.5q14 -23 41 -23q26 0 40 23q5 8 5.5 17.5t0.5 62.5v14v77h78h14q51 0 61 1t19 6q22 13 22 40t-23 41q-8 5 -17 5.5t-62 0.5h-14h-78v77v14q0 53 -0.5 62.5t-5.5 17.5q-13 23 -41 23 q-5 0 -13 -2q-18 -7 -27 -21q-5 -8 -5.5 -17.5t-0.5 -62.5v-14v-77h-78h-13q-51 0 -61 -1t-19 -6q-23 -14 -23 -40z" />
<glyph unicode="," horiz-adv-x="290" d="M0 212q0 -30 13 -57q16 -33 48 -54t68 -21h10l2 -3q13 -25 13 -55q0 -46 -29.5 -90.5t-79.5 -72.5q-10 -5 -12 -8t-2 -10q0 -16 12 -16q9 0 24 9q103 55 163.5 142t60.5 176q0 31 -7 56q-15 61 -57.5 99t-94.5 38q-2 0 -6.5 -0.5t-6.5 -0.5q-52 -5 -85.5 -43.5 t-33.5 -88.5z" />
<glyph unicode="-" d="M0 512q0 -36 33 -45q8 -2 208 -2q199 0 207 2q33 9 33 45t-33 45q-8 2 -196 2q-211 0 -219 -2q-33 -11 -33 -45z" />
<glyph unicode="." horiz-adv-x="264" d="M0 212q0 -54 38 -92q39 -39 94 -39q36 0 68 19t50 53q14 28 14 60q0 53 -38.5 93t-93.5 40q-7 0 -23 -2q-49 -8 -79 -46t-30 -86z" />
<glyph unicode="0" horiz-adv-x="774" d="M0 512q0 -157 77 -269q59 -86 140.5 -131.5t170.5 -45.5q88 0 169.5 45t140.5 132q77 112 77 269q0 145 -62 246q-102 168 -277 197q-13 3 -63 3h-16q-187 -21 -295 -200q-62 -101 -62 -246zM241 516q0 106 15 223q13 99 33.5 131.5t75.5 39.5h16q24 0 38 -2 q50 -10 69 -41.5t31 -127.5q15 -117 15 -223q0 -94 -10 -188q-10 -93 -21 -134t-32 -57q-30 -24 -83 -24q-54 0 -84 24q-21 16 -32 57t-21 134q-10 94 -10 188zM386 0h4h-2h-2zM386 995h4h-2h-2z" />
<glyph unicode="1" horiz-adv-x="518" d="M0 590q0 -25 23 -25q9 0 14 5t22 30l94 144l25 37v-270q0 -267 -2 -279q-4 -31 -15.5 -50.5t-37.5 -36.5q-12 -8 -23 -14q-14 -7 -18 -12t-4 -15q0 -14 10 -20l5 -3h205h206l4 3q11 7 11 20q0 10 -4 15t-18 12q-39 20 -55.5 42.5t-21.5 59.5q-1 7 -1 352l-1 343l-3 4 q-1 1 -2 2.5t-2.5 2.5t-2.5 2l-5 3h-104l-103 1l-5 -3q-5 -2 -7 -5q-4 -4 -31 -54l-44 -82l-83 -154l-18 -32q-8 -13 -8 -23zM257 0h5h-2h-3zM257 995h5h-2h-3z" />
<glyph unicode="2" horiz-adv-x="690" d="M0 96l3 -4q7 -12 20 -12q14 0 22 14q12 24 66 42q35 12 75 12q101 0 191 -57q32 -20 58 -23q6 -1 17 -1q62 0 119.5 41.5t93.5 111.5q26 54 26 71q0 10 -7.5 16.5t-16.5 6.5q-14 0 -21 -13q-13 -23 -49 -32q-20 -5 -36 -5q-42 0 -92 26q-74 40 -152 40q-112 0 -203 -72 l-8 -7h-1q0 1 1 2q89 109 249 159q110 34 183 96q54 45 84 102.5t30 113.5q0 44 -20 84q-30 58 -93.5 97t-148.5 51q-16 2 -64 2q-7 0 -16.5 -0.5t-11.5 -0.5q-92 -8 -163.5 -47t-87.5 -90q-6 -18 -6 -36q0 -48 35 -83t82 -35q21 0 41 7q35 13 54 42.5t19 63.5q0 61 -53 93 q-4 2 -4 3q0 3 20 4q8 1 25 1q76 0 124.5 -44.5t48.5 -115.5q0 -16 -1 -25q-10 -79 -58 -140.5t-125 -95.5q-94 -41 -159 -119.5t-84 -171.5q-1 -9 -4 -20q-2 -12 -2 -29v-23zM344 0h4h-2h-2zM344 995h4h-2h-2z" />
<glyph unicode="3" horiz-adv-x="616" d="M0 251q0 -48 36 -83q106 -103 266 -103q96 0 178 42q68 35 103 86t35 108q0 74 -57.5 141t-161.5 103l-10 4q4 2 9 3q80 23 136.5 67.5t72.5 95.5q3 9 3 29q0 21 -2 29q-17 73 -90.5 123.5t-176.5 60.5q-9 1 -51 1h-26q-152 -15 -233 -99q-31 -32 -31 -77q0 -47 34 -83.5 t83 -36.5q15 0 23 2q42 9 66.5 41t24.5 71q0 63 -55 94l-7 3l7 2q32 5 60 5q18 0 40 -4q52 -12 84 -49t32 -84q0 -22 -7 -42q-19 -55 -63 -89t-100 -37q-31 -1 -31 -24q0 -24 31 -25q65 -3 115 -56.5t61 -133.5q2 -20 2 -30q0 -72 -47 -119t-121 -47q-2 0 -5.5 0.5t-4.5 0.5 q-17 1 -41 5.5t-24 6.5q36 14 54.5 43t18.5 62q0 45 -30.5 78t-81.5 33t-84.5 -35.5t-33.5 -82.5zM307 0h4h-2h-2zM307 995h4h-2h-2z" />
<glyph unicode="4" horiz-adv-x="704" d="M0 314q0 -14 13 -21q3 -2 98 -2h79h174v-23q-1 -58 -16 -85.5t-58 -49.5q-17 -8 -21.5 -13.5t-4.5 -15.5q0 -13 11 -20l5 -3h205h205l5 3q11 7 11 20q0 11 -4.5 16t-20.5 13q-44 23 -59 50t-16 85v23h36q32 0 38.5 1t13.5 8q8 8 8 22q0 21 -19 29q-5 2 -41 2h-37v205v92 q0 116 -1 117q-6 13 -22 13q-12 0 -21 -11l-18 -20l-31 -35l-35 -39l-20 -22l-20 -24q-65 -72 -70 -79q-2 -3 -2 -100v-97h-138q-136 0 -136 1v1l5 5q5 6 14 16.5t18 19.5l107 120l81 91l53 59l102 115l80 90q11 13 26 28q9 11 9 21q0 12 -11 19l-5 3h-151q-15 0 -37 0.5 t-31 0.5q-83 0 -87 -2q-10 -4 -13.5 -12t-3.5 -28q0 -129 -60 -279t-156 -262q-23 -27 -27 -32.5t-4 -12.5v-1zM351 0h4h-2h-2zM351 995h4h-2h-2z" />
<glyph unicode="5" horiz-adv-x="616" d="M0 266q0 -47 36 -82q94 -91 205 -113q29 -6 57 -6q102 0 190.5 62t117.5 156q12 41 12 79q0 121 -99 205.5t-240 84.5q-44 0 -89 -9q-52 -11 -97 -34q-11 -6 -14 -6q0 5 6.5 83.5t7.5 79.5l6 -2q97 -33 222 -33q82 0 129 16q89 31 144 155q5 13 5 19q0 9 -7 15 q-8 6 -15 6q-11 0 -29 -5q-115 -34 -229 -34q-115 0 -214 34q-18 6 -25 6q-2 0 -8 -2q-9 -3 -12 -12q-1 -3 -16.5 -183.5t-15.5 -190.5q0 -24 23 -24q7 0 30 15q81 55 183 58h8q27 0 47 -15q36 -27 58.5 -89t22.5 -133q0 -3 -0.5 -8.5t-0.5 -8.5q-4 -85 -56 -145.5 t-119 -60.5q-14 0 -28 3q-12 2 -32 9t-20 9q4 2 8 3q37 10 57 38.5t20 64.5q0 39 -23.5 71t-65.5 41q-12 3 -25 3q-49 0 -82 -36.5t-33 -83.5zM307 0h4h-2h-2zM307 995h4h-2h-2z" />
<glyph unicode="6" horiz-adv-x="714" d="M0 516q0 -46 7 -87q18 -104 83 -190.5t163 -135.5q73 -37 139 -37q61 0 135 31q163 70 185 195q3 20 3 39q0 134 -162 213q-85 42 -164 42q-65 0 -134 -28q-10 -5 -13 -5v2q0 26 7 84q21 169 70 224q43 48 117 48q45 0 95 -22l6 -3q0 -2 -6 -3q-36 -9 -56.5 -39 t-20.5 -67q0 -54 41 -86q31 -25 71 -25q47 0 83 34t36 83q0 19 -6 37q-14 44 -75.5 85t-129.5 51q-10 2 -60 2q-22 0 -27 -1q-114 -13 -213 -86.5t-142 -179.5q-32 -76 -32 -175zM281 334q0 52 11 103.5t27 72.5q22 28 69 28q12 0 18 -1q33 -5 50.5 -25t27.5 -67 q12 -55 12 -106q0 -53 -11 -107q-12 -62 -28.5 -87t-48.5 -30q-12 -2 -19 -2q-46 0 -67 30q-28 42 -39 151q-2 26 -2 40zM356 0h4h-2h-2zM356 995h4h-2h-2z" />
<glyph unicode="7" horiz-adv-x="665" d="M0 710l3 -5q6 -10 20 -10q11 0 16 5t10 21q27 95 67 106q3 1 11 1q26 0 69 -37q68 -58 167 -58q110 0 204 70l9 7l-6 -11q-59 -105 -175 -207q-107 -94 -172 -202q-87 -147 -87 -273v-22l3 -4q1 -1 2 -2.5t2.5 -2.5t2.5 -2l5 -3h122h122l5 3q12 7 12 43q0 129 42 258 q23 72 77 161q63 103 117 295q19 68 19 81q0 6 -5 13q-7 8 -17 8q-12 0 -24 -15q-46 -61 -107 -61h-2q-21 0 -40 16q-95 77 -220 77q-10 0 -30 -2q-18 -1 -45 -8q-4 -1 -10.5 -2.5t-7.5 -1.5q-4 -1 -13 -4q-45 -18 -70 -18q-17 0 -40 16q-4 3 -11 3q-16 0 -22 -11l-3 -5 v-108v-109zM332 0h4h-2h-2zM332 995h4h-2h-2z" />
<glyph unicode="8" horiz-adv-x="735" d="M0 344q0 -111 96 -189q111 -90 271 -90q112 0 207.5 47.5t138.5 131.5q24 48 24 98q0 56 -28.5 108t-81.5 89l-7 6q0 1 2 3q68 63 68 160q0 31 -7 55q-25 87 -113.5 141.5t-200.5 54.5q-13 0 -41 -2q-126 -12 -204.5 -85.5t-78.5 -167.5q0 -82 64 -149l9 -10l-7 -5 q-111 -75 -111 -196zM128 344q0 55 34 107q6 9 19.5 23.5t15.5 14.5l2 -1l5 -2.5t6 -2.5q4 -1 13 -4.5t13 -5.5q115 -42 189 -98.5t94 -118.5q3 -8 3 -23q0 -41 -42.5 -72t-104.5 -32h-7q-102 0 -171 64.5t-69 150.5zM239 817q0 31 39 55t88 24q8 0 24 -2q67 -10 109 -65.5 t42 -124.5q0 -57 -29 -103l-3 -4l-26 13q-88 43 -154.5 95.5t-85.5 93.5q-4 8 -4 18zM366 0h4h-2h-2zM366 995h4h-2h-2z" />
<glyph unicode="9" horiz-adv-x="714" d="M0 693q0 -56 29 -103q26 -42 77 -77.5t115 -56.5q55 -18 106 -18q62 0 133 28q10 5 13 5v-2q0 -26 -7 -84q-18 -148 -58 -208q-44 -64 -128 -64q-48 0 -96 22l-6 3q0 2 6 3q34 9 55.5 39t21.5 67q0 16 -4 28q-11 40 -41 61.5t-67 21.5q-39 0 -71.5 -23.5t-43.5 -65.5 q-4 -13 -4 -30q0 -74 109 -135q69 -38 152 -38q128 0 244 83t159 213q21 66 21 144q0 84 -24 156q-34 102 -117 180.5t-188 107.5q-29 8 -65 8q-13 0 -31 -2q-76 -12 -147 -51.5t-106 -90.5q-37 -53 -37 -121zM219 685q0 53 11 107q12 62 28 87t48 30q12 2 19 2q9 0 19 -2 q35 -6 51 -30t28 -87q11 -54 11 -107q0 -51 -12 -106q-11 -52 -32 -72.5t-63 -20.5t-63.5 20.5t-32.5 72.5q-12 55 -12 106zM355 0h5h-2h-3zM355 995h5h-2h-3z" />
<glyph unicode="f" horiz-adv-x="561" d="M-178 -233q0 -19 8 -45q15 -45 52.5 -70t87.5 -25q16 0 33 3q155 27 267 195q164 246 229 572l2 10h67h12q44 0 53 1t16 6q17 11 17 32q0 23 -20 35q-7 4 -67 4h-56q2 8 5 17q63 185 177 262q25 17 33 17l-2 -2q-34 -27 -34 -70q0 -26 14.5 -49.5t39.5 -35.5q19 -9 40 -9 q42 0 73 31t31 73q0 12 -3 24q-9 37 -52 68t-90 34q-8 0 -20 2q-18 2 -35 2h-7q-123 -10 -228.5 -104t-158.5 -242l-6 -17l-76 -1q-79 0 -85 -4q-20 -12 -20 -35q0 -22 20 -34q9 -5 76 -5q64 0 64 -1q0 -2 -18 -76q-100 -422 -147 -514q-23 -47 -57 -79.5t-71 -42.5l-8 -2 h-1q2 2 6 4q43 24 43 77q0 33 -19.5 60t-53.5 36q-18 5 -30 5q-43 0 -72 -31t-29 -76z" />
<glyph unicode="m" horiz-adv-x="829" d="M71 332q0 -13 13 -14h3q9 0 19 24q38 97 107 131q22 11 31 11q5 0 10 -3q23 -11 23 -39q0 -6 -2 -16q-2 -8 -2 -13q0 -3 -59 -200q-58 -193 -58 -201q0 -3 2 -5q3 -5 9 -6t45 -1h17h21q37 0 42.5 1t8.5 6q3 6 55 182q38 129 56 182q7 11 9 30q2 20 20 45t36 34q8 4 12 4 q5 0 9 -2q23 -11 23 -40q0 -11 -1 -16q-3 -12 -3 -13q0 -3 -59 -200q-57 -190 -57 -201q0 -4 1 -5q3 -5 9 -6t45 -1h18h20q38 0 43.5 1t8.5 6q3 6 55 182q38 129 56 182q5 9 8 30q2 19 20.5 44.5t36.5 34.5q8 4 12 4q3 0 6 -1q26 -12 26 -41q0 -4 -2 -14l-3 -15 q-1 -8 -40.5 -139t-41.5 -136q-10 -17 -10 -50q0 -22 6 -42q11 -37 43 -61t67 -24q22 0 42 11l20 11q89 50 140 150q22 43 22 59q0 11 -14 13q-1 0 -1 0.5t-1 0.5q-11 0 -17 -18q-23 -60 -63.5 -103.5t-79.5 -48.5h-1q-7 0 -12.5 9t-5.5 22q0 5 2 13l3 15q1 8 40.5 139.5 t41.5 136.5q10 18 10 53q0 44 -25.5 79t-66.5 48q-18 6 -37 6q-41 0 -55 -16q-7 -7 -12 -11q-30 -23 -48 -51q-2 -3 -3.5 -5.5t-2.5 -3.5l-1 -1q-1 1 -1 2q-5 14 -14 27q-25 40 -68 53q-19 6 -40 6q-40 0 -54 -16q-3 -3 -13 -11q-30 -23 -48 -51q-2 -3 -3.5 -5.5t-2.5 -3.5 l-1 -1q-1 1 -1 2q-6 17 -13 27q-28 44 -81 56q-15 3 -34 3q-2 0 -4.5 -0.5t-3.5 -0.5q-22 -3 -34 -10q-9 -6 -15 -9q-89 -49 -138 -150q-20 -42 -20 -55z" />
<glyph unicode="p" horiz-adv-x="714" d="M-78 -342q0 -14 10 -20l5 -3h178h178l5 3q11 7 11 20q0 11 -5 16t-20 9q-19 5 -28 8q-30 10 -30 17v2q0 3 54.5 183t55.5 182q2 -4 4 -9q17 -55 60 -89l14 -12q20 -17 61 -17q11 0 17 1q97 9 174 95t99 210q9 48 9 98q0 33 -4 50q-13 64 -59 105.5t-101 41.5 q-10 0 -15 -1q-31 -4 -74 -32.5t-77 -67.5q-7 -8 -8 -8q-2 0 -2 6q0 20 -16 48q-39 73 -122 73q-11 0 -17 -1q-30 -3 -49 -19q-3 -3 -19 -13q-78 -52 -124 -143q-22 -43 -22 -59q0 -12 14 -14h3q9 0 18 23q22 55 61 95.5t73 42.5h1q18 0 18 -31q0 -11 -2 -17q0 -2 -1 -5.5 t-1.5 -6.5t-0.5 -4q-1 -5 -103.5 -345t-105.5 -347q-9 -17 -38 -26q-3 -1 -8 -3l-2 -1q-1 0 -11 -2q-9 -2 -33 -8q-15 -4 -20 -9t-5 -16zM358 138v9l31 103q32 107 34 110l6 15q3 9 24 30q52 50 99 50q9 0 12 -1q10 -3 23 -16t19 -27q7 -15 7 -46q0 -51 -17 -111 q-20 -68 -63.5 -125.5t-93.5 -79.5q-3 -2 -8.5 -4.5t-6.5 -2.5h-1q-1 -1 -2 -1q-8 0 -21 10t-21 22q-19 29 -21 65z" />
<glyph unicode="r" horiz-adv-x="614" d="M119 449q0 -14 16 -14h4q3 1 15 13q41 41 87 41h8q14 -1 22.5 -13t8.5 -29q0 -11 -3 -21q-2 -8 -2 -13q0 -2 -59 -200q-58 -193 -58 -201q0 -3 2 -5q3 -5 9 -6t45 -1h17h21q37 0 42.5 1t8.5 6q3 6 55 182q50 169 56 181q3 6 4 9q2 7 3 8q2 2 4 12q9 34 35.5 53.5 t58.5 19.5q50 0 83 -43q25 -34 60 -34q17 0 35 10q35 18 35 60q0 30 -21 51q-22 21 -60.5 34t-79.5 13q-8 0 -26 -2q-74 -9 -132 -64l-7 -6q-2 2 -4 5q-29 43 -78 53q-14 2 -22 2q-45 0 -97.5 -26t-80.5 -63q-5 -7 -5 -13z" />
<glyph unicode="s" horiz-adv-x="464" d="M108 72q0 -29 19 -48q22 -22 65 -41.5t82 -24.5q18 -3 37 -3q65 0 118.5 30t83.5 85q17 31 17 65q0 45 -27 90t-75 81q-14 9 -40 24q-31 18 -53.5 45t-22.5 45q0 5 1 7q8 22 35 35.5t60 13.5q13 0 19 -1l11 -2l-4 -8q-7 -14 -7 -29q0 -27 20 -47t48 -20q6 0 16 2 q26 6 42.5 27.5t16.5 48.5q0 16 -8 34q-13 28 -67 49.5t-111 21.5h-13q-59 -3 -107.5 -31t-73.5 -74q-17 -31 -17 -66q0 -53 36 -105.5t99 -88.5q64 -35 81 -81q2 -6 2 -9q0 -15 -16 -31.5t-41 -26.5q-18 -7 -46 -7t-49 8l-2 1l4 7q12 18 12 36q0 27 -20 47.5t-49 20.5 q-9 0 -18 -3q-26 -7 -42 -29t-16 -48z" />
<glyph unicode="z" horiz-adv-x="546" d="M47 42q0 -3 2 -9q6 -14 23 -14q10 0 15 6q25 31 80 31q50 0 88 -26q19 -13 39 -19q21 -6 45 -6q70 0 131 46q33 25 46.5 40t19.5 34q10 29 10 53q0 32 -17 51.5t-47 19.5h-1q-27 0 -45 -17.5t-18 -41.5q0 -17 8 -29q15 -25 45 -25q4 0 12 2q2 1 3 1h1v-1q-14 -25 -31 -25 q-1 0 -3.5 0.5t-4.5 0.5q-35 4 -74 35q-32 26 -83 26h-6h-12l-4 1l1 1l84 69q83 69 172 142t100 83q8 6 8 17q0 16 -15 23q-2 1 -283 1q-158 0 -160 -1q-8 -2 -14 -13t-31 -67q-34 -76 -34 -83q0 -4 5 -11q7 -10 18 -10q9 0 22 11q34 28 65 34q7 1 142 1q82 0 82 -1 q-4 -4 -163 -135t-166 -136q-55 -42 -55 -59z" />
<glyph unicode="&#xad;" d="M0 512q0 -36 33 -45q8 -2 208 -2q199 0 207 2q33 9 33 45t-33 45q-8 2 -196 2q-211 0 -219 -2q-33 -11 -33 -45z" />
<glyph unicode="&#x2000;" horiz-adv-x="682" />
<glyph unicode="&#x2001;" horiz-adv-x="1365" />
<glyph unicode="&#x2002;" horiz-adv-x="682" />
<glyph unicode="&#x2003;" horiz-adv-x="1365" />
<glyph unicode="&#x2004;" horiz-adv-x="455" />
<glyph unicode="&#x2005;" horiz-adv-x="341" />
<glyph unicode="&#x2006;" horiz-adv-x="227" />
<glyph unicode="&#x2007;" horiz-adv-x="227" />
<glyph unicode="&#x2008;" horiz-adv-x="170" />
<glyph unicode="&#x2009;" horiz-adv-x="273" />
<glyph unicode="&#x200a;" horiz-adv-x="75" />
<glyph unicode="&#x2010;" d="M0 512q0 -36 33 -45q8 -2 208 -2q199 0 207 2q33 9 33 45t-33 45q-8 2 -196 2q-211 0 -219 -2q-33 -11 -33 -45z" />
<glyph unicode="&#x2011;" d="M0 512q0 -36 33 -45q8 -2 208 -2q199 0 207 2q33 9 33 45t-33 45q-8 2 -196 2q-211 0 -219 -2q-33 -11 -33 -45z" />
<glyph unicode="&#x2012;" d="M0 512q0 -36 33 -45q8 -2 208 -2q199 0 207 2q33 9 33 45t-33 45q-8 2 -196 2q-211 0 -219 -2q-33 -11 -33 -45z" />
<glyph unicode="&#x2013;" horiz-adv-x="1022" d="M0 512q0 -36 70 -45q17 -2 443 -2q424 0 441 2q70 9 70 45t-70 45q-17 2 -418 2q-449 0 -466 -2q-70 -11 -70 -45z" />
<glyph unicode="&#x2014;" horiz-adv-x="2046" d="M0 512q0 -36 141 -45q34 -2 885 -2q847 0 881 2q141 9 141 45t-141 45q-34 2 -834 2q-898 0 -932 -2q-141 -11 -141 -45z" />
<glyph unicode="&#x202f;" horiz-adv-x="273" />
<glyph unicode="&#x205f;" horiz-adv-x="341" />
<glyph unicode="&#x25fc;" horiz-adv-x="1024" d="M0 0z" />
</font>
</defs>
</svg>
